<svg xmlns="http://www.w3.org/2000/svg" xmlns:xlink="http://www.w3.org/1999/xlink" width="500" zoomAndPan="magnify" viewBox="0 0 375 374.999991" height="500" preserveAspectRatio="xMidYMid meet" version="1.0"><defs><clipPath id="93e9fafa2e"><path d="M 66.382812 121.960938 L 154.132812 121.960938 L 154.132812 287.683594 L 66.382812 287.683594 Z M 66.382812 121.960938 " clip-rule="nonzero"/></clipPath><clipPath id="635e0a479e"><path d="M 155.472656 58.671875 L 230 58.671875 L 230 316.671875 L 155.472656 316.671875 Z M 155.472656 58.671875 " clip-rule="nonzero"/></clipPath><clipPath id="cdf7f265b1"><path d="M 219.273438 120.191406 L 308.523438 120.191406 L 308.523438 289.28125 L 219.273438 289.28125 Z M 219.273438 120.191406 " clip-rule="nonzero"/></clipPath></defs><g clip-path="url(#93e9fafa2e)"><path fill="#000000" d="M 318.847656 242.089844 C 318.746094 237.605469 318.144531 233.292969 316.753906 229.167969 C 315.355469 225.042969 313.171875 221.28125 310.203125 217.882812 C 307.226562 214.488281 303.34375 211.511719 298.550781 208.964844 C 293.757812 206.414062 288.023438 204.414062 281.351562 202.957031 C 291.179688 199.804688 298.644531 194.980469 303.738281 188.488281 C 308.835938 181.996094 311.382812 174.5625 311.382812 166.191406 C 311.382812 152.238281 305.46875 141.378906 293.636719 133.609375 C 281.804688 125.847656 264.425781 121.960938 241.492188 121.960938 L 180.453125 121.960938 C 180.964844 123.199219 181.671875 124.894531 182.546875 127.003906 C 182.84375 127.050781 183.140625 127.09375 183.429688 127.148438 C 185.613281 127.574219 187.492188 128.605469 189.070312 130.242188 C 190.648438 131.882812 191.863281 134.339844 192.710938 137.613281 C 193.542969 140.828125 193.902344 148.664062 193.917969 154.332031 C 193.917969 154.332031 217.441406 210.195312 217.464844 210.261719 L 217.464844 132.882812 C 223.773438 131.0625 231.054688 130.152344 239.308594 130.152344 C 246.953125 130.152344 253.65625 131.09375 259.417969 132.972656 C 265.179688 134.855469 270.003906 137.375 273.890625 140.527344 C 277.769531 143.683594 280.714844 147.414062 282.71875 151.71875 C 284.71875 156.03125 285.71875 160.550781 285.71875 165.28125 C 285.71875 175.597656 282.199219 183.664062 275.164062 189.488281 C 268.738281 194.804688 258.503906 197.6875 244.496094 198.148438 L 244.496094 206.746094 C 250.941406 207.078125 256.710938 207.992188 261.785156 209.511719 C 268.277344 211.453125 273.675781 214.125 277.984375 217.519531 C 282.289062 220.917969 285.476562 224.921875 287.539062 229.53125 C 289.601562 234.144531 290.636719 239.058594 290.636719 244.273438 C 290.636719 269.71875 268.023438 290.082031 236.359375 282.316406 C 229 280.511719 220.015625 274.574219 213.449219 259.382812 C 204.605469 238.90625 185.382812 192.714844 171.644531 159.726562 C 162.4375 137.632812 155.933594 121.960938 155.933594 121.960938 L 151.746094 121.960938 L 93.503906 257.925781 C 91.320312 262.902344 89.46875 267.085938 87.953125 270.484375 C 86.433594 273.882812 84.765625 276.644531 82.945312 278.765625 C 81.128906 280.890625 78.941406 282.558594 76.394531 283.769531 C 73.847656 284.984375 70.507812 285.894531 66.382812 286.5 L 66.382812 291.050781 L 118.4375 291.050781 L 118.4375 286.5 C 114.3125 286.257812 111.003906 285.804688 108.519531 285.136719 C 106.03125 284.472656 104.089844 283.679688 102.695312 282.769531 C 101.300781 281.859375 100.386719 280.859375 99.964844 279.765625 C 99.539062 278.675781 99.328125 277.460938 99.328125 276.125 C 99.328125 272.972656 100.660156 268.179688 103.332031 261.746094 L 114.617188 235.71875 L 114.683594 235.71875 L 118.582031 226.617188 L 118.4375 226.617188 L 147.195312 159.820312 L 175.226562 226.617188 L 130.148438 226.617188 L 126.226562 235.71875 L 178.6875 235.71875 C 178.6875 235.71875 185.9375 253.582031 188.695312 259.382812 C 197.515625 277.917969 203.230469 291.050781 248.226562 291.050781 C 302.8125 291.050781 319.3125 262.726562 318.847656 242.089844 " fill-opacity="1" fill-rule="nonzero"/></g><g clip-path="url(#635e0a479e)"><path fill="#000000" d="M 224.210938 241.214844 C 225.289062 241.109375 226.15625 241.511719 226.710938 242.414062 C 227.933594 244.386719 228.664062 246.570312 228.910156 248.851562 C 230.4375 262.992188 226.03125 274.996094 215.238281 284.273438 C 210.328125 288.492188 207.109375 293.609375 204.976562 299.484375 C 204.101562 301.894531 203.933594 304.597656 203.691406 307.191406 C 203.21875 312.265625 201.984375 317.144531 200.375 321.957031 C 199.082031 325.824219 197.921875 329.730469 196.734375 333.632812 C 196.253906 335.210938 195.683594 336.714844 194.457031 337.886719 C 193.710938 338.59375 192.320312 338.53125 191.933594 337.648438 C 191.480469 336.617188 191.03125 335.527344 190.886719 334.421875 C 190.539062 331.820312 190.769531 329.242188 191.3125 326.648438 C 192.480469 321.039062 194.523438 315.695312 196.0625 310.199219 C 196.722656 307.84375 197.351562 305.488281 197.6875 303.054688 C 197.929688 301.3125 197.476562 299.964844 196.332031 298.609375 C 190.960938 292.234375 185.957031 285.585938 181.410156 278.597656 C 174.867188 268.535156 171.296875 257.46875 170.175781 245.570312 C 169.867188 242.320312 169.539062 239.070312 169.292969 235.816406 C 169.1875 234.445312 170.226562 234.335938 171.253906 234.328125 C 171.800781 234.828125 172.324219 235.355469 172.910156 235.808594 C 173.042969 235.910156 173.382812 235.75 173.628906 235.707031 C 173.574219 235.5625 173.542969 235.410156 173.464844 235.28125 C 173.234375 234.90625 172.992188 234.539062 172.75 234.167969 C 171.085938 231.007812 169.421875 227.851562 167.761719 224.6875 C 167.15625 223.539062 166.515625 222.402344 165.980469 221.222656 C 165.523438 220.222656 166.289062 219.132812 167.351562 219.277344 C 168.78125 219.46875 170.1875 219.792969 171.28125 219.996094 C 172.035156 219.949219 172.050781 219.648438 172.199219 219.324219 C 173.316406 216.835938 172.550781 214.804688 171.121094 212.640625 C 168.707031 208.980469 166.644531 205.089844 164.347656 201.351562 C 159.636719 193.699219 157.371094 185.304688 156.609375 176.433594 C 156.359375 173.519531 156.140625 170.597656 155.917969 167.679688 C 155.882812 167.191406 155.855469 166.703125 155.875 166.21875 C 155.902344 165.542969 156.140625 164.945312 156.746094 164.578125 C 157.40625 164.171875 158.054688 164.488281 158.515625 164.871094 C 159.515625 165.699219 160.394531 166.667969 161.363281 167.535156 C 161.578125 167.726562 162.015625 167.867188 162.246094 167.777344 C 162.71875 167.59375 162.773438 167.140625 162.730469 166.625 C 162.613281 165.214844 161.5 163.289062 162.757812 162.507812 C 164.613281 161.359375 165.0625 164.28125 166.574219 164.6875 C 166.96875 165.175781 167.332031 165.699219 167.777344 166.140625 C 167.976562 166.335938 168.402344 166.53125 168.605469 166.441406 C 168.980469 166.285156 168.867188 165.96875 168.652344 165.628906 C 168.226562 164.96875 168.199219 164.0625 167.378906 163.65625 C 166.769531 161.804688 166.125 159.964844 165.5625 158.101562 C 163.574219 151.5 162.636719 144.714844 162.484375 137.847656 C 162.320312 130.339844 162.507812 122.835938 163.378906 115.363281 C 163.453125 114.714844 163.417969 114.015625 163.664062 113.441406 C 163.894531 112.894531 164.34375 112.285156 164.855469 112.042969 C 165.457031 111.757812 166.132812 112.117188 166.539062 112.695312 C 167.195312 113.625 167.820312 114.578125 168.449219 115.527344 C 169.421875 117 170.386719 118.472656 171.296875 119.855469 C 172.433594 119.609375 172.308594 118.941406 172.265625 118.308594 C 171.089844 100.492188 178.953125 87.1875 193.09375 77.199219 C 200.554688 71.929688 208.347656 67.125 214.613281 60.339844 C 214.941406 59.980469 215.320312 59.664062 215.722656 59.382812 C 216.445312 58.878906 217.234375 58.792969 218.015625 59.25 C 220.4375 60.675781 222.574219 64.945312 222.21875 67.605469 C 222.097656 68.496094 221.570312 69.144531 220.800781 69.453125 C 219.992188 69.777344 219.1875 69.480469 218.597656 68.835938 C 218.273438 68.480469 218.097656 67.996094 217.804688 67.613281 C 217.527344 67.246094 217.179688 66.929688 216.871094 66.601562 C 215.421875 67.300781 214.53125 68.488281 213.617188 69.628906 C 212.121094 71.492188 211.445312 73.652344 211.757812 76.03125 C 212.078125 78.453125 212.484375 80.871094 212.925781 83.273438 C 214.085938 89.539062 214.8125 95.847656 215.308594 102.199219 C 215.820312 108.8125 214.894531 115.207031 212.859375 121.480469 C 212.558594 122.410156 212.300781 123.355469 212.050781 124.300781 C 211.886719 124.929688 212.46875 125.246094 212.816406 125.222656 C 213.898438 125.15625 214.757812 123.800781 215.984375 124.527344 C 217.476562 125.402344 217.273438 127.046875 217.527344 128.445312 C 219.6875 140.417969 218.9375 152.15625 214.574219 163.582031 C 213.0625 167.539062 211.464844 171.460938 209.90625 175.398438 C 208.46875 177.828125 207.261719 180.34375 206.792969 183.167969 C 208.839844 180.898438 210.539062 178.449219 211.429688 175.523438 C 212.597656 173.792969 213.726562 172.035156 214.960938 170.355469 C 215.335938 169.84375 216.007812 169.667969 216.703125 169.984375 C 217.242188 170.230469 217.371094 170.703125 217.378906 171.15625 C 217.410156 172.9375 217.460938 174.722656 217.351562 176.496094 C 216.882812 183.96875 217.429688 191.351562 218.765625 198.730469 C 219.894531 204.964844 220.191406 211.28125 218.609375 217.535156 C 218.089844 218.878906 217.003906 220.074219 217.46875 221.6875 C 217.476562 221.683594 217.234375 221.664062 217.234375 221.664062 L 217.328125 221.773438 C 218.609375 220.625 219.820312 219.429688 220.207031 217.652344 C 220.933594 216.789062 221.578125 215.828125 222.425781 215.101562 C 222.863281 214.726562 223.679688 214.738281 224.058594 215.511719 C 224.722656 216.851562 224.917969 218.304688 225.015625 219.773438 C 225.46875 226.621094 225.636719 233.449219 223.089844 240.015625 C 222.804688 240.378906 222.457031 240.710938 222.25 241.113281 C 222.039062 241.53125 221.953125 242.148438 222.425781 242.34375 C 222.71875 242.46875 223.25 242.144531 223.613281 241.921875 C 223.863281 241.777344 224.015625 241.460938 224.210938 241.214844 Z M 192.820312 108.503906 C 192.574219 108.5 192.328125 108.492188 192.082031 108.488281 C 191.53125 110.15625 190.886719 111.796875 190.445312 113.492188 C 188.84375 119.640625 187.308594 125.804688 185.742188 131.964844 C 184.527344 136.753906 184.355469 141.621094 184.445312 146.535156 C 184.757812 163.351562 186.574219 180.066406 187.890625 196.8125 C 188.25 201.359375 188.507812 205.945312 189.273438 210.433594 C 191.914062 226.019531 194.78125 241.566406 197.515625 257.132812 C 198.273438 261.464844 199.527344 265.71875 199.660156 270.148438 C 199.816406 275.195312 200.019531 280.242188 200.050781 285.289062 C 200.109375 296.921875 199.066406 308.382812 194.996094 319.429688 C 193.761719 322.773438 193.160156 326.351562 192.308594 329.832031 C 191.914062 331.425781 191.789062 333.054688 192.304688 334.652344 C 192.386719 334.914062 192.695312 335.128906 192.9375 335.3125 C 193.207031 335.507812 193.480469 335.371094 193.621094 334.964844 C 194.054688 333.738281 194.464844 332.507812 194.882812 331.277344 C 197.667969 323.066406 198.839844 314.480469 200.757812 306.066406 C 202.210938 299.667969 202.699219 293.183594 202.417969 286.628906 C 202.144531 280.277344 201.875 273.925781 201.761719 267.566406 C 201.683594 263.140625 201.070312 258.800781 200.207031 254.476562 C 199.382812 250.320312 198.636719 246.144531 197.9375 241.964844 C 196.644531 234.25 195.726562 226.457031 194.101562 218.816406 C 190.019531 199.574219 188.929688 180.042969 188 160.496094 C 187.5625 151.347656 188.316406 142.222656 189.1875 133.132812 C 189.902344 125.671875 190.726562 118.207031 192.582031 110.910156 C 192.78125 110.136719 192.75 109.304688 192.820312 108.503906 Z M 208.382812 133.179688 C 212.382812 128.097656 213.898438 124.757812 212.25 125.253906 C 211.125 125.589844 210.390625 127.027344 208.382812 133.179688 Z M 221.886719 243.433594 C 221.796875 243.378906 221.664062 243.25 221.601562 243.277344 C 221.472656 243.335938 221.277344 243.523438 221.296875 243.578125 C 221.453125 243.984375 221.683594 244.046875 221.875 243.765625 C 221.929688 243.6875 221.886719 243.550781 221.886719 243.433594 Z M 208.046875 134.191406 C 208.167969 134.074219 208.265625 133.980469 208.363281 133.886719 C 208.183594 133.78125 208.007812 133.644531 207.8125 133.585938 C 207.75 133.566406 207.625 133.761719 207.527344 133.859375 C 207.703125 133.972656 207.882812 134.085938 208.046875 134.191406 Z M 208.046875 134.191406 " fill-opacity="1" fill-rule="nonzero"/></g><g clip-path="url(#cdf7f265b1)"><path fill="#000000" d="M 308.597656 240.320312 C 308.496094 235.832031 307.894531 231.523438 306.503906 227.394531 C 305.105469 223.273438 302.921875 219.511719 299.953125 216.113281 C 296.976562 212.714844 293.09375 209.742188 288.300781 207.195312 C 283.507812 204.644531 277.773438 202.644531 271.101562 201.1875 C 280.929688 198.03125 288.394531 193.210938 293.488281 186.71875 C 298.585938 180.226562 301.132812 172.792969 301.132812 164.421875 C 301.132812 150.46875 295.21875 139.609375 283.386719 131.839844 C 271.554688 124.078125 254.175781 120.191406 231.242188 120.191406 L 170.203125 120.191406 C 170.714844 121.429688 171.421875 123.125 172.296875 125.230469 C 172.59375 125.28125 172.890625 125.324219 173.179688 125.378906 C 175.363281 125.804688 177.242188 126.835938 178.820312 128.472656 C 180.398438 130.113281 181.613281 132.570312 182.460938 135.84375 C 183.292969 139.058594 183.652344 146.894531 183.667969 152.5625 C 183.667969 152.5625 207.191406 208.425781 207.214844 208.492188 L 207.214844 131.113281 C 213.523438 129.292969 220.804688 128.382812 229.058594 128.382812 C 236.703125 128.382812 243.40625 129.324219 249.167969 131.203125 C 254.929688 133.085938 259.753906 135.601562 263.640625 138.757812 C 267.519531 141.914062 270.464844 145.644531 272.46875 149.949219 C 274.46875 154.257812 275.46875 158.777344 275.46875 163.511719 C 275.46875 173.824219 271.949219 181.894531 264.914062 187.71875 C 258.488281 193.035156 248.253906 195.917969 234.246094 196.378906 L 234.246094 204.976562 C 240.691406 205.308594 246.460938 206.222656 251.535156 207.738281 C 258.027344 209.683594 263.425781 212.351562 267.734375 215.75 C 272.039062 219.148438 275.226562 223.152344 277.289062 227.761719 C 279.351562 232.375 280.386719 237.289062 280.386719 242.503906 C 280.386719 267.949219 257.773438 288.3125 226.109375 280.546875 C 218.75 278.742188 209.765625 272.804688 203.199219 257.609375 C 194.355469 237.136719 175.132812 190.945312 161.394531 157.957031 C 152.1875 135.859375 145.683594 120.191406 145.683594 120.191406 L 141.496094 120.191406 L 83.253906 256.15625 C 81.070312 261.132812 79.21875 265.316406 77.703125 268.714844 C 76.183594 272.113281 74.515625 274.875 72.695312 276.996094 C 70.878906 279.121094 68.691406 280.789062 66.144531 282 C 63.597656 283.214844 60.257812 284.125 56.132812 284.730469 L 56.132812 289.28125 L 108.1875 289.28125 L 108.1875 284.730469 C 104.0625 284.488281 100.753906 284.035156 98.269531 283.367188 C 95.78125 282.699219 93.839844 281.910156 92.445312 281 C 91.050781 280.089844 90.136719 279.085938 89.714844 277.996094 C 89.289062 276.902344 89.078125 275.691406 89.078125 274.355469 C 89.078125 271.203125 90.410156 266.410156 93.082031 259.976562 L 104.367188 233.949219 L 104.433594 233.949219 L 108.332031 224.847656 L 108.1875 224.847656 L 136.945312 158.050781 L 164.976562 224.847656 L 119.898438 224.847656 L 115.976562 233.949219 L 168.4375 233.949219 C 168.4375 233.949219 175.6875 251.8125 178.445312 257.609375 C 187.265625 276.148438 192.980469 289.28125 237.976562 289.28125 C 292.5625 289.28125 309.0625 260.957031 308.597656 240.320312 " fill-opacity="1" fill-rule="nonzero"/></g></svg>